<?xml version="1.0" encoding="UTF-8"?>
<svg xmlns="http://www.w3.org/2000/svg" viewBox="0 0 320 64" width="320" height="64">
  <defs>
    <linearGradient id="g" x1="0" x2="1" y1="0" y2="1">
      <stop offset="0%" stop-color="#FF7A1A"/>
      <stop offset="100%" stop-color="#FF4D00"/>
    </linearGradient>
  </defs>
  <!-- Bag icon -->
  <g transform="translate(0,0)">
    <rect x="4" y="8" width="48" height="48" rx="12" fill="url(#g)"/>
    <path d="M16 28h24a2 2 0 0 1 2 2l-2 16a4 4 0 0 1-4 4H20a4 4 0 0 1-4-4l-2-16a2 2 0 0 1 2-2Z" fill="#fff"/>
    <path d="M20 28c0-4 3-8 8-8s8 4 8 8" fill="none" stroke="#FF7A1A" stroke-width="4" stroke-linecap="round"/>
    <path d="M22 36h6m-6 6h6m-6-12h6" stroke="#FF7A1A" stroke-width="3" stroke-linecap="round"/>
    <path d="M32 30h6m-6 6h6m-6 6h6" stroke="#FF7A1A" stroke-width="3" stroke-linecap="round"/>
  </g>
  <!-- Wordmark -->
  <g fill="#111" font-family="Segoe UI, Inter, system-ui, -apple-system, Arial" font-weight="700" font-size="28" transform="translate(64,41)">
    <text>E‑Kampot Shop</text>
  </g>
</svg>
