<?xml version="1.0" encoding="UTF-8"?>
<svg xmlns="http://www.w3.org/2000/svg" viewBox="0 0 64 64" width="64" height="64">
  <defs>
    <linearGradient id="g" x1="0" x2="1" y1="0" y2="1">
      <stop offset="0%" stop-color="#FF7A1A"/>
      <stop offset="100%" stop-color="#FF4D00"/>
    </linearGradient>
  </defs>
  <rect x="4" y="4" width="56" height="56" rx="14" fill="url(#g)"/>
  <!-- Shopping bag mark -->
  <path d="M20 26h24a2 2 0 0 1 2 2l-2 18a4 4 0 0 1-4 4H24a4 4 0 0 1-4-4l-2-18a2 2 0 0 1 2-2Z" fill="#fff"/>
  <path d="M24 26c0-4.418 3.582-8 8-8s8 3.582 8 8" fill="none" stroke="#FF7A1A" stroke-width="4" stroke-linecap="round"/>
  <!-- EK monogram -->
  <path d="M26 36h6m-6 6h6m-6-12h6" stroke="#FF7A1A" stroke-width="3" stroke-linecap="round"/>
  <path d="M36 30h6m-6 6h6m-6 6h6" stroke="#FF7A1A" stroke-width="3" stroke-linecap="round"/>
</svg>
